<?xml version="1.0" encoding="UTF-8" standalone="no"?>
<!DOCTYPE svg PUBLIC "-//W3C//DTD SVG 1.1//EN" "http://www.w3.org/Graphics/SVG/1.1/DTD/svg11.dtd">
<svg width="100%" height="100%" viewBox="0 0 1024 1024" version="1.1" xmlns="http://www.w3.org/2000/svg" xmlns:xlink="http://www.w3.org/1999/xlink" xml:space="preserve" xmlns:serif="http://www.serif.com/" style="fill-rule:evenodd;clip-rule:evenodd;">
    <g transform="matrix(22.8599,0,0,22.8599,-4132.71,-1186.65)">
        <path d="M218.177,81.569C217.259,79.616 209.904,79.042 208.425,80.185C204.935,82.883 206.737,84.509 207.33,87.613C206.514,83.335 208.705,82.329 211.281,84.671C213.626,86.802 213.644,91.381 213.562,94.387C214.304,94.647 215.312,94.931 215.995,95.086C215.684,90.586 215.557,85.985 213.528,81.922C215.364,83.175 216.121,83.059 217.494,84.955C216.811,83.549 216.545,82.108 215.677,80.588C216.972,80.92 216.997,80.761 218.177,81.569Z" style="fill:rgb(40,144,58);fill-rule:nonzero;stroke:black;stroke-width:0.5px;"/>
        <path d="M219.228,65.795C219.442,64.232 220.947,62.186 220.926,60.788C220.919,60.313 219.84,58.958 219.58,58.591C218.688,57.333 217.692,56.441 216.127,56.109C215.457,55.966 214.933,56.361 214.318,56.052C213.474,55.629 213.295,54.417 212.461,53.913C211.131,53.111 211.253,53.76 210.113,54.095C205.101,55.571 199.584,55.107 194.399,55.088C192.968,55.083 191.853,54.75 191.935,56.462C191.975,57.276 192.349,57.827 193.071,58.217C191.288,58.784 192.323,59.706 191.968,60.887C191.51,62.411 189.515,63.228 188.422,64.43C186.017,67.076 184.068,69.617 186.683,71.758C187.179,71.898 187.63,72.241 188.067,72.55C185.926,74.809 185.018,78.387 187.224,81.061C188.646,82.785 190.159,82.471 192.145,82.127C195.147,81.607 197.927,81.078 200.999,81.371C202.73,81.536 204.903,82.502 206.625,82.26C207.164,82.184 207.456,81.661 207.948,81.577C209.772,81.269 211.379,81.456 212.884,80.183C214.706,82.783 216.444,77.315 216.827,76.212C217.327,74.773 218.193,73.511 218.597,72.031C219.149,70.011 218.946,67.856 219.228,65.795Z" style="fill:white;fill-rule:nonzero;stroke:black;stroke-width:1px;"/>
        <path d="M213.238,80.221C209.482,83.513 207.401,77.849 203.627,78.957C204.085,79.119 204.648,79.524 204.893,80.065C202.036,79.14 197.589,79.779 194.61,80.216C192.815,80.479 188.383,81.654 188.649,78.304C189.495,80.044 191.035,79.331 192.416,79.054C195.647,78.406 198.79,79.144 201.935,79.556C200.993,78.652 199.437,78.53 198.442,77.781C199.041,77.677 199.65,77.534 200.237,77.432C199.128,76.359 189.276,75.51 190.718,72.203C189.565,71.657 187.973,71.91 187.294,70.386C186.225,67.985 192.029,62.876 194.073,62.394C192.499,64.109 189.632,66.511 189.732,69.098C189.855,72.25 193.173,69.974 195.26,70.281C194.623,71.432 193.028,72.873 193.945,74.215C195.01,75.775 198.338,75.971 199.993,76.253C203.141,76.788 207.181,77.519 209.422,79.911C208.459,77.016 206.613,74.396 206.486,71.1C206.435,69.772 206.59,67.964 207.106,66.778C208.001,64.718 209.965,63.184 211.579,61.71C212.194,61.148 212.906,61.036 213.072,60.044C213.132,59.687 212.842,57.86 212.126,58.132C214.111,57.379 212.136,55.545 211.161,54.896C212.159,55.43 213.342,56.524 213.765,57.562C213.605,57.598 213.466,57.573 213.306,57.611C213.025,59.179 214.16,60.679 213.323,62.265C212.678,63.488 211.039,64.179 210.115,65.286C208.488,67.236 207.512,69.723 207.482,72.285C207.465,73.671 207.738,76.783 209.24,77.4C209.305,77.302 209.38,77.121 209.457,77.044C209.247,78.686 210.097,79.849 211.653,78.938C214.362,77.351 213.39,72.548 214.125,70.044C214.186,71.893 213.877,74.731 213.774,76.922C213.727,77.903 214.1,79.464 213.238,80.221Z" style="fill:rgb(188,190,192);fill-rule:nonzero;"/>
    </g>
</svg>
